<?xml version="1.0" encoding="UTF-8"?>
<svg id="Layer_1" xmlns="http://www.w3.org/2000/svg" xmlns:xlink="http://www.w3.org/1999/xlink" version="1.1" viewBox="0 0 411.53 411.53">
  <!-- Generator: Adobe Illustrator 29.3.0, SVG Export Plug-In . SVG Version: 2.1.0 Build 146)  -->
  <defs>
    <style>
      .st0 {
        fill: #58595b;
      }

      .st1 {
        fill: url(#linear-gradient);
      }

      .st2 {
        fill: #fff;
      }
    </style>
    <linearGradient id="linear-gradient" x1="0" y1="839.42" x2="411.53" y2="427.89" gradientTransform="translate(0 -427.89)" gradientUnits="userSpaceOnUse">
      <stop offset="0" stop-color="#27aae1"/>
      <stop offset="1" stop-color="#531b93"/>
    </linearGradient>
  </defs>
  <rect class="st1" width="411.53" height="411.53"/>
  <g>
    <g>
      <path class="st0" d="M213.42,180.05c-5.33,0-9.65,4.32-9.65,9.65s4.32,9.65,9.65,9.65,9.66-4.32,9.66-9.65-4.32-9.65-9.66-9.65Z"/>
      <path class="st0" d="M275.91,213.59c-1.38.72-2.97,1.29-5.08,1.46-4.62.36-7.46-1.19-9.15-3.22-1.7,2.28-4.65,4.29-9.65,4.68-7.89.61-11.15-3.49-12.14-7-.24-.85-.38-1.67-.38-2.36,0-1.33,1.04-2.45,2.32-2.51,1.27-.05,2.29.97,2.29,2.28,0,.22.11,1.25.79,2.31.9,1.42,2.84,2.9,7.12,2.63,4.28-.28,6.09-1.96,6.9-3.42.62-1.11.67-2.09.67-2.18v-3.17c-2.28-.84-5.95-4.25-7.03-5.65-.2-.26-.38-.55-.53-.85-.48-.95-.71-2.04-.51-3.09.26-1.37,1.09-2.35,2.34-2.89,2.12-.91,4.39-1.15,6.68-1.18,2.32-.03,4.55.24,6.75,1.02,1.41.5,2.8,1.44,2.92,3,.41,5.14-5.04,8.91-6.48,9.53v3.09c0,.2.1,1.12.67,2.08.79,1.34,2.52,2.76,6.43,2.51,3.76-.24,5.4-1.82,6.16-3.22.24-.45.37-.86.47-1.23,0,0-.69,5.04-1.55,7.4v-.02h-.01Z"/>
    </g>
    <g>
      <path class="st2" d="M300.06,86.92c-4.74,0-8.59,3.84-8.59,8.59v36.15c0,4.74,3.85,8.59,8.59,8.59s8.59-3.84,8.59-8.59v-36.15c0-4.74-3.84-8.59-8.59-8.59Z"/>
      <path class="st2" d="M300.06,145.67c-4.74,0-8.59,3.84-8.59,8.59s3.85,8.59,8.59,8.59,8.59-3.84,8.59-8.59-3.84-8.59-8.59-8.59Z"/>
    </g>
    <path class="st2" d="M249.12,300.17c4.26-3.74,6.91-9.21,6.91-15.22s-2.66-11.48-6.9-15.22c4.25-3.74,6.9-9.21,6.9-15.22s-2.66-11.48-6.91-15.22c.26-.23.45-.52.7-.75,12.33-3.46,22.14-12.86,26.08-24.95-1.38.72-2.97,1.29-5.08,1.46-4.62.36-7.46-1.19-9.15-3.22-1.7,2.28-4.65,4.29-9.65,4.68-7.89.61-11.15-3.49-12.14-7-.24-.85-.38-1.67-.38-2.36,0-1.33,1.04-2.45,2.32-2.51,1.27-.05,2.29.97,2.29,2.28,0,.22.11,1.25.79,2.31.9,1.42,2.84,2.9,7.12,2.63,4.28-.28,6.09-1.96,6.9-3.42.62-1.11.67-2.09.67-2.18v-3.17c-2.28-.84-5.95-4.25-7.03-5.65-.2-.26-.38-.55-.53-.85-.48-.95-.71-2.04-.51-3.09.26-1.37,1.09-2.35,2.34-2.89,2.12-.91,4.39-1.15,6.68-1.18,2.32-.03,4.55.24,6.75,1.02,1.41.5,2.8,1.44,2.92,3,.41,5.14-5.04,8.91-6.48,9.53v3.09c0,.2.1,1.12.67,2.08.79,1.34,2.52,2.76,6.43,2.51,3.76-.24,5.4-1.82,6.16-3.22.24-.45.37-.86.47-1.23.23-1.02.37-2.87.37-4.36,0-17.96-12.41-32.92-29.1-37.05.04-.52.24-1.01.24-1.54,0-11.03-8.82-20.04-19.78-20.36v-37.1c0-4.35-3.53-7.88-7.88-7.88-13.06,0-23.65,10.59-23.65,23.65v3.56c-3.39-6.56-10.22-11.08-18.11-11.08-7.31,0-13.6,3.97-17.19,9.77v-22.84c0-5.28-4.29-9.57-9.57-9.57-15.86,0-28.72,12.86-28.72,28.72v23.84c-8.16,2.66-14.1,10.25-14.1,19.29,0,4.32,1.33,8.37,3.69,11.71-6.41,3.44-10.77,10.2-10.77,17.97,0,6.24,2.82,11.84,7.26,15.58-4.44,3.74-7.26,9.34-7.26,15.58s2.66,11.47,6.91,15.22c-4.26,3.74-6.91,9.21-6.91,15.22s2.66,11.47,6.9,15.22c-4.25,3.75-6.9,9.21-6.9,15.22s2.66,11.48,6.91,15.22c-4.26,3.74-6.91,9.21-6.91,15.22,0,2.91.65,5.68,1.77,8.21,0,0,58.63,39.33,144.82,6.64,4.03-3.73,6.56-9.02,6.56-14.85s-2.66-11.47-6.91-15.22v-.03h-.01ZM213.42,199.36c-5.33,0-9.65-4.32-9.65-9.65s4.32-9.65,9.65-9.65,9.66,4.32,9.66,9.65-4.32,9.65-9.66,9.65Z"/>
  </g>
</svg>