<?xml version="1.0" encoding="UTF-8"?>
<svg id="Layer_1" xmlns="http://www.w3.org/2000/svg" version="1.1" viewBox="0 0 1417.32 321.59">
  <!-- Generator: Adobe Illustrator 29.3.0, SVG Export Plug-In . SVG Version: 2.1.0 Build 146)  -->
  <defs>
    <style>
      .st0 {
        fill: #58595b;
      }

      .st1 {
        fill: #fff;
      }

      .st2 {
        fill: #27aae1;
      }
    </style>
  </defs>
  <g>
    <rect class="st0" x="771.08" y="129.88" width="16.85" height="16.86" rx="3.53" ry="3.53"/>
    <rect class="st0" x="771.08" y="152.36" width="16.85" height="16.86" rx="3.53" ry="3.53"/>
    <rect class="st0" x="771.08" y="197.32" width="16.85" height="16.86" rx="3.53" ry="3.53"/>
    <rect class="st0" x="793.57" y="152.36" width="16.85" height="16.86" rx="3.53" ry="3.53"/>
    <rect class="st0" x="793.57" y="197.32" width="16.85" height="16.86" rx="3.53" ry="3.53"/>
    <rect class="st0" x="861" y="174.84" width="16.85" height="16.86" rx="3.53" ry="3.53"/>
    <rect class="st0" x="861" y="152.36" width="16.85" height="16.86" rx="3.53" ry="3.53"/>
    <rect class="st0" x="861" y="197.32" width="16.85" height="16.86" rx="3.53" ry="3.53"/>
    <rect class="st0" x="771.08" y="219.8" width="16.85" height="16.86" rx="3.53" ry="3.53"/>
    <rect class="st0" x="973.4" y="129.88" width="16.85" height="16.86" rx="3.53" ry="3.53"/>
    <rect class="st0" x="973.4" y="174.84" width="16.85" height="16.86" rx="3.53" ry="3.53"/>
    <rect class="st0" x="973.4" y="219.8" width="16.85" height="16.86" rx="3.53" ry="3.53"/>
    <rect class="st0" x="950.91" y="129.88" width="16.85" height="16.86" rx="3.53" ry="3.53"/>
    <rect class="st0" x="950.91" y="174.84" width="16.85" height="16.86" rx="3.53" ry="3.53"/>
    <rect class="st0" x="950.91" y="219.8" width="16.85" height="16.86" rx="3.53" ry="3.53"/>
    <rect class="st0" x="928.43" y="129.88" width="16.85" height="16.86" rx="3.53" ry="3.53"/>
    <rect class="st0" x="928.43" y="174.84" width="16.85" height="16.86" rx="3.53" ry="3.53"/>
    <rect class="st0" x="928.43" y="219.8" width="16.85" height="16.86" rx="3.53" ry="3.53"/>
    <rect class="st0" x="1063.3" y="129.88" width="16.85" height="16.86" rx="3.53" ry="3.53"/>
    <rect class="st0" x="1310.56" y="84.92" width="16.85" height="16.86" rx="3.53" ry="3.53"/>
    <rect class="st0" x="1310.56" y="107.4" width="16.85" height="16.86" rx="3.53" ry="3.53"/>
    <rect class="st0" x="1063.3" y="219.8" width="16.85" height="16.86" rx="3.53" ry="3.53"/>
    <rect class="st0" x="1085.78" y="129.88" width="16.85" height="16.86" rx="3.53" ry="3.53"/>
    <rect class="st0" x="1085.78" y="219.8" width="16.85" height="16.86" rx="3.53" ry="3.53"/>
    <rect class="st0" x="1108.26" y="129.88" width="16.85" height="16.86" rx="3.53" ry="3.53"/>
    <rect class="st0" x="1108.26" y="219.8" width="16.85" height="16.86" rx="3.53" ry="3.53"/>
    <rect class="st0" x="995.87" y="152.36" width="16.85" height="16.86" rx="3.53" ry="3.53"/>
    <rect class="st0" x="995.87" y="174.84" width="16.85" height="16.86" rx="3.53" ry="3.53"/>
    <rect class="st0" x="1040.82" y="152.36" width="16.85" height="16.86" rx="3.53" ry="3.53"/>
    <rect class="st0" x="1040.82" y="174.84" width="16.85" height="16.86" rx="3.53" ry="3.53"/>
    <rect class="st0" x="1333.04" y="129.88" width="16.85" height="16.86" rx="3.53" ry="3.53"/>
    <rect class="st0" x="1333.04" y="174.84" width="16.85" height="16.86" rx="3.53" ry="3.53"/>
    <rect class="st0" x="1378" y="129.88" width="16.85" height="16.86" rx="3.53" ry="3.53"/>
    <rect class="st0" x="1378" y="174.84" width="16.85" height="16.86" rx="3.53" ry="3.53"/>
    <rect class="st0" x="1040.82" y="197.32" width="16.85" height="16.86" rx="3.53" ry="3.53"/>
    <rect class="st0" x="1130.73" y="152.36" width="16.85" height="16.86" rx="3.53" ry="3.53"/>
    <rect class="st0" x="1130.73" y="197.32" width="16.85" height="16.86" rx="3.53" ry="3.53"/>
    <rect class="st0" x="905.96" y="197.32" width="16.85" height="16.86" rx="3.53" ry="3.53"/>
    <rect class="st0" x="995.87" y="219.8" width="16.85" height="16.86" rx="3.53" ry="3.53"/>
    <rect class="st0" x="1310.56" y="197.32" width="16.85" height="16.86" rx="3.53" ry="3.53"/>
    <rect class="st0" x="1310.56" y="219.8" width="16.85" height="16.86" rx="3.53" ry="3.53"/>
    <rect class="st0" x="1400.47" y="84.92" width="16.85" height="16.86" rx="3.53" ry="3.53"/>
    <rect class="st0" x="1400.47" y="107.4" width="16.85" height="16.86" rx="3.53" ry="3.53"/>
    <rect class="st0" x="1400.47" y="197.32" width="16.85" height="16.86" rx="3.53" ry="3.53"/>
    <rect class="st0" x="1400.47" y="219.8" width="16.85" height="16.86" rx="3.53" ry="3.53"/>
    <rect class="st0" x="1243.13" y="129.88" width="16.85" height="16.86" rx="3.53" ry="3.53"/>
    <rect class="st0" x="1243.13" y="174.84" width="16.85" height="16.86" rx="3.53" ry="3.53"/>
    <rect class="st0" x="1243.13" y="219.8" width="16.85" height="16.86" rx="3.53" ry="3.53"/>
    <rect class="st0" x="1220.65" y="129.88" width="16.85" height="16.86" rx="3.53" ry="3.53"/>
    <rect class="st0" x="1220.65" y="174.84" width="16.85" height="16.86" rx="3.53" ry="3.53"/>
    <rect class="st0" x="1220.65" y="219.8" width="16.85" height="16.86" rx="3.53" ry="3.53"/>
    <rect class="st0" x="1198.17" y="129.88" width="16.85" height="16.86" rx="3.53" ry="3.53"/>
    <rect class="st0" x="1198.17" y="174.84" width="16.85" height="16.86" rx="3.53" ry="3.53"/>
    <rect class="st0" x="1198.17" y="219.8" width="16.85" height="16.86" rx="3.53" ry="3.53"/>
    <rect class="st0" x="1265.61" y="152.36" width="16.85" height="16.86" rx="3.53" ry="3.53"/>
    <rect class="st0" x="1265.61" y="174.84" width="16.85" height="16.86" rx="3.53" ry="3.53"/>
    <rect class="st0" x="1175.69" y="197.32" width="16.85" height="16.86" rx="3.53" ry="3.53"/>
    <rect class="st0" x="1265.61" y="219.8" width="16.85" height="16.86" rx="3.53" ry="3.53"/>
    <rect class="st0" x="838.52" y="129.88" width="16.85" height="16.86" rx="3.53" ry="3.53"/>
    <rect class="st0" x="838.52" y="219.8" width="16.85" height="16.86" rx="3.53" ry="3.53"/>
    <rect class="st0" x="816.04" y="129.88" width="16.85" height="16.86" rx="3.53" ry="3.53"/>
    <rect class="st0" x="816.04" y="219.8" width="16.85" height="16.86" rx="3.53" ry="3.53"/>
    <rect class="st0" x="771.08" y="242.27" width="16.85" height="16.86" rx="3.53" ry="3.53"/>
    <rect class="st0" x="771.08" y="264.75" width="16.85" height="16.86" rx="3.53" ry="3.53"/>
    <rect class="st0" x="658.7" y="84.92" width="16.85" height="16.86" rx="3.53" ry="3.53"/>
    <rect class="st0" x="523.83" y="107.4" width="16.85" height="16.86" rx="3.53" ry="3.53"/>
    <rect class="st0" x="568.79" y="107.4" width="16.85" height="16.86" rx="3.53" ry="3.53"/>
    <rect class="st0" x="546.31" y="174.84" width="16.85" height="16.86" rx="3.53" ry="3.53"/>
    <rect class="st0" x="523.83" y="174.84" width="16.85" height="16.86" rx="3.53" ry="3.53"/>
    <rect class="st0" x="568.79" y="174.84" width="16.85" height="16.86" rx="3.53" ry="3.53"/>
    <rect class="st0" x="501.35" y="129.88" width="16.85" height="16.86" rx="3.53" ry="3.53"/>
    <rect class="st0" x="501.35" y="152.36" width="16.85" height="16.86" rx="3.53" ry="3.53"/>
    <rect class="st0" x="501.35" y="197.32" width="16.85" height="16.86" rx="3.53" ry="3.53"/>
    <rect class="st0" x="501.35" y="219.8" width="16.85" height="16.86" rx="3.53" ry="3.53"/>
    <rect class="st0" x="591.27" y="129.88" width="16.85" height="16.86" rx="3.53" ry="3.53"/>
    <rect class="st0" x="591.27" y="152.36" width="16.85" height="16.86" rx="3.53" ry="3.53"/>
    <rect class="st0" x="591.27" y="197.32" width="16.85" height="16.86" rx="3.53" ry="3.53"/>
    <rect class="st0" x="591.27" y="219.8" width="16.85" height="16.86" rx="3.53" ry="3.53"/>
    <rect class="st0" x="658.7" y="219.8" width="16.85" height="16.86" rx="3.53" ry="3.53"/>
    <rect class="st0" x="703.66" y="219.8" width="16.85" height="16.86" rx="3.53" ry="3.53"/>
    <rect class="st0" x="681.18" y="84.92" width="16.85" height="16.86" rx="3.53" ry="3.53"/>
    <rect class="st0" x="681.18" y="107.4" width="16.85" height="16.86" rx="3.53" ry="3.53"/>
    <rect class="st0" x="681.18" y="129.88" width="16.85" height="16.86" rx="3.53" ry="3.53"/>
    <rect class="st0" x="681.18" y="152.36" width="16.85" height="16.86" rx="3.53" ry="3.53"/>
    <rect class="st0" x="681.18" y="174.84" width="16.85" height="16.86" rx="3.53" ry="3.53"/>
    <rect class="st0" x="681.18" y="197.32" width="16.85" height="16.86" rx="3.53" ry="3.53"/>
    <rect class="st2" x="1355.51" y="152.36" width="16.85" height="16.86" rx="3.53" ry="3.53"/>
    <rect class="st2" x="1265.61" y="197.32" width="16.85" height="16.86" rx="3.53" ry="3.53"/>
    <rect class="st2" x="995.87" y="197.32" width="16.85" height="16.86" rx="3.53" ry="3.53"/>
    <rect class="st2" x="771.08" y="174.84" width="16.85" height="16.86" rx="3.53" ry="3.53"/>
    <rect class="st2" x="681.18" y="219.8" width="16.85" height="16.86" rx="3.53" ry="3.53"/>
    <rect class="st2" x="591.27" y="174.84" width="16.85" height="16.86" rx="3.53" ry="3.53"/>
    <rect class="st2" x="501.35" y="174.84" width="16.85" height="16.86" rx="3.53" ry="3.53"/>
    <rect class="st2" x="546.31" y="84.92" width="16.85" height="16.86" rx="3.53" ry="3.53"/>
  </g>
  <g>
    <g>
      <path class="st0" d="M198.22,158.42c-5.33,0-9.65,4.32-9.65,9.65s4.32,9.65,9.65,9.65,9.66-4.32,9.66-9.65-4.32-9.65-9.66-9.65Z"/>
      <path class="st0" d="M260.71,191.95c-1.38.72-2.97,1.29-5.08,1.46-4.62.36-7.46-1.19-9.15-3.22-1.7,2.28-4.65,4.29-9.65,4.68-7.89.61-11.15-3.49-12.14-7-.24-.85-.38-1.67-.38-2.36,0-1.33,1.04-2.45,2.32-2.51,1.27-.05,2.29.97,2.29,2.28,0,.22.11,1.25.79,2.31.9,1.42,2.84,2.9,7.12,2.63,4.28-.28,6.09-1.96,6.9-3.42.62-1.11.67-2.09.67-2.18v-3.17c-2.28-.84-5.95-4.25-7.03-5.65-.2-.26-.38-.55-.53-.85-.48-.95-.71-2.04-.51-3.09.26-1.37,1.09-2.35,2.34-2.89,2.12-.91,4.39-1.15,6.68-1.18,2.32-.03,4.55.24,6.75,1.02,1.41.5,2.8,1.44,2.92,3,.41,5.14-5.04,8.91-6.48,9.53v3.09c0,.2.1,1.12.67,2.08.79,1.34,2.52,2.76,6.43,2.51,3.76-.24,5.4-1.82,6.16-3.22.24-.45.37-.86.47-1.23,0,0-.69,5.04-1.55,7.4v-.02Z"/>
      <path class="st2" d="M407.1,161.24c0-33.31-26.18-60.43-59.07-62.09.42-2.91.7-5.85.7-8.88,0-34.38-27.87-62.25-62.25-62.25-15.5,0-29.65,5.7-40.55,15.08C233.31,17.59,207.1,0,176.71,0c-34.96,0-64.46,23.24-73.99,55.1-7.36-2.25-15.17-3.47-23.27-3.47-43.88,0-79.45,35.56-79.45,79.44,0,27.9,14.4,52.43,36.16,66.6-6.17,10.38-9.78,22.45-9.78,35.4,0,33.83,24.2,61.97,56.22,68.14,0,0,2.76.49,6.86.75-1.13-2.52-1.77-5.3-1.77-8.21,0-6.01,2.66-11.47,6.91-15.22-4.26-3.74-6.91-9.21-6.91-15.22s2.66-11.48,6.9-15.22c-4.25-3.74-6.9-9.21-6.9-15.22s2.66-11.48,6.91-15.22c-4.26-3.74-6.91-9.21-6.91-15.22s2.82-11.84,7.26-15.58c-4.44-3.74-7.26-9.34-7.26-15.58,0-7.77,4.36-14.53,10.77-17.97-2.37-3.34-3.69-7.39-3.69-11.71,0-9.03,5.95-16.63,14.1-19.29v-23.84c0-15.86,12.86-28.72,28.72-28.72,5.28,0,9.57,4.28,9.57,9.57v22.84c3.59-5.8,9.88-9.77,17.19-9.77,7.89,0,14.72,4.51,18.11,11.08v-3.56c0-13.06,10.59-23.65,23.65-23.65,4.35,0,7.88,3.53,7.88,7.88v37.1c10.96.32,19.78,9.33,19.78,20.36,0,.53-.2,1.01-.24,1.54,16.69,4.13,29.1,19.09,29.1,37.05,0,1.49-.13,3.34-.37,4.36-.1.37-.08.29,0,0,0,0-.69,5.04-1.55,7.4h0c-3.95,12.08-13.75,21.49-26.08,24.95-.25.24-.44.53-.7.75,4.26,3.74,6.91,9.21,6.91,15.22s-2.66,11.48-6.9,15.22c4.25,3.75,6.9,9.21,6.9,15.22s-2.66,11.48-6.91,15.22c4.26,3.74,6.91,9.21,6.91,15.22s-2.53,11.12-6.56,14.85c14.76-5.6,27.52-15.25,36.67-27.82,9.13,4.68,19.44,7.37,30.41,7.37,36.9,0,66.82-29.92,66.82-66.82,0-.79-.09-1.57-.12-2.36,22.87-9.21,39.04-31.57,39.04-57.73h0ZM284.87,141.2c-4.74,0-8.59-3.84-8.59-8.59s3.85-8.59,8.59-8.59,8.59,3.84,8.59,8.59-3.84,8.59-8.59,8.59ZM293.46,110.02c0,4.74-3.84,8.59-8.59,8.59s-8.59-3.84-8.59-8.59v-36.15c0-4.74,3.85-8.59,8.59-8.59s8.59,3.84,8.59,8.59v36.15Z"/>
    </g>
    <g>
      <path class="st1" d="M284.87,65.28c-4.74,0-8.59,3.84-8.59,8.59v36.15c0,4.74,3.85,8.59,8.59,8.59s8.59-3.84,8.59-8.59v-36.15c0-4.74-3.84-8.59-8.59-8.59Z"/>
      <path class="st1" d="M284.87,124.03c-4.74,0-8.59,3.84-8.59,8.59s3.85,8.59,8.59,8.59,8.59-3.84,8.59-8.59-3.84-8.59-8.59-8.59Z"/>
    </g>
    <path class="st1" d="M233.93,278.54c4.26-3.74,6.91-9.21,6.91-15.22s-2.66-11.48-6.9-15.22c4.25-3.74,6.9-9.21,6.9-15.22s-2.66-11.48-6.91-15.22c.26-.23.45-.52.7-.75,12.33-3.46,22.14-12.86,26.08-24.95-1.38.72-2.97,1.29-5.08,1.46-4.62.36-7.46-1.19-9.15-3.22-1.7,2.28-4.65,4.29-9.65,4.68-7.89.61-11.15-3.49-12.14-7-.24-.85-.38-1.67-.38-2.36,0-1.33,1.04-2.45,2.32-2.51,1.27-.05,2.29.97,2.29,2.28,0,.22.11,1.25.79,2.31.9,1.42,2.84,2.9,7.12,2.63,4.28-.28,6.09-1.96,6.9-3.42.62-1.11.67-2.09.67-2.18v-3.17c-2.28-.84-5.95-4.25-7.03-5.65-.2-.26-.38-.55-.53-.85-.48-.95-.71-2.04-.51-3.09.26-1.37,1.09-2.35,2.34-2.89,2.12-.91,4.39-1.15,6.68-1.18,2.32-.03,4.55.24,6.75,1.02,1.41.5,2.8,1.44,2.92,3,.41,5.14-5.04,8.91-6.48,9.53v3.09c0,.2.1,1.12.67,2.08.79,1.34,2.52,2.76,6.43,2.51,3.76-.24,5.4-1.82,6.16-3.22.24-.45.37-.86.47-1.23.23-1.02.37-2.87.37-4.36,0-17.96-12.41-32.92-29.1-37.05.04-.52.24-1.01.24-1.54,0-11.03-8.82-20.04-19.78-20.36v-37.1c0-4.35-3.53-7.88-7.88-7.88-13.06,0-23.65,10.59-23.65,23.65v3.56c-3.39-6.56-10.22-11.08-18.11-11.08-7.31,0-13.6,3.97-17.19,9.77v-22.84c0-5.28-4.29-9.57-9.57-9.57-15.86,0-28.72,12.86-28.72,28.72v23.84c-8.16,2.66-14.1,10.25-14.1,19.29,0,4.32,1.33,8.37,3.69,11.71-6.41,3.44-10.77,10.2-10.77,17.97,0,6.24,2.82,11.84,7.26,15.58-4.44,3.74-7.26,9.34-7.26,15.58s2.66,11.47,6.91,15.22c-4.26,3.74-6.91,9.21-6.91,15.22s2.66,11.47,6.9,15.22c-4.25,3.75-6.9,9.21-6.9,15.22s2.66,11.48,6.91,15.22c-4.26,3.74-6.91,9.21-6.91,15.22,0,2.91.65,5.68,1.77,8.21,0,0,58.63,39.33,144.82,6.64,4.03-3.73,6.56-9.02,6.56-14.85s-2.66-11.47-6.91-15.22v-.03ZM198.22,177.72c-5.33,0-9.65-4.32-9.65-9.65s4.32-9.65,9.65-9.65,9.66,4.32,9.66,9.65-4.32,9.65-9.66,9.65Z"/>
  </g>
</svg>